<svg width="400" height="400" xmlns="http://www.w3.org/2000/svg">
  <defs>
    <!-- Cork texture pattern -->
    <pattern id="corkPattern" patternUnits="userSpaceOnUse" width="400" height="400">
      <!-- Base cork color -->
      <rect width="400" height="400" fill="#8B6F47"/>
      
      <!-- Random cork texture dots and specs -->
      <circle cx="50" cy="80" r="3" fill="#6B5637" opacity="0.4"/>
      <circle cx="120" cy="60" r="2" fill="#4A3C28" opacity="0.5"/>
      <circle cx="180" cy="100" r="4" fill="#6B5637" opacity="0.3"/>
      <circle cx="250" cy="90" r="2.5" fill="#4A3C28" opacity="0.6"/>
      <circle cx="320" cy="110" r="3" fill="#6B5637" opacity="0.4"/>
      <circle cx="380" cy="70" r="2" fill="#4A3C28" opacity="0.5"/>
      
      <circle cx="40" cy="180" r="3.5" fill="#6B5637" opacity="0.4"/>
      <circle cx="100" cy="160" r="2" fill="#4A3C28" opacity="0.6"/>
      <circle cx="160" cy="200" r="3" fill="#6B5637" opacity="0.3"/>
      <circle cx="220" cy="170" r="2.5" fill="#4A3C28" opacity="0.5"/>
      <circle cx="280" cy="190" r="4" fill="#6B5637" opacity="0.4"/>
      <circle cx="350" cy="180" r="2" fill="#4A3C28" opacity="0.7"/>
      
      <circle cx="60" cy="280" r="3" fill="#6B5637" opacity="0.5"/>
      <circle cx="130" cy="260" r="2.5" fill="#4A3C28" opacity="0.4"/>
      <circle cx="190" cy="300" r="3.5" fill="#6B5637" opacity="0.3"/>
      <circle cx="260" cy="270" r="2" fill="#4A3C28" opacity="0.6"/>
      <circle cx="330" cy="290" r="3" fill="#6B5637" opacity="0.4"/>
      <circle cx="390" cy="280" r="2.5" fill="#4A3C28" opacity="0.5"/>
      
      <circle cx="70" cy="360" r="2" fill="#4A3C28" opacity="0.6"/>
      <circle cx="140" cy="350" r="3" fill="#6B5637" opacity="0.4"/>
      <circle cx="210" cy="380" r="2.5" fill="#4A3C28" opacity="0.5"/>
      <circle cx="270" cy="360" r="3.5" fill="#6B5637" opacity="0.3"/>
      <circle cx="340" cy="370" r="2" fill="#4A3C28" opacity="0.7"/>
      
      <!-- Irregular shapes for texture -->
      <ellipse cx="90" cy="120" rx="8" ry="4" fill="#5A4A3A" opacity="0.2" transform="rotate(45 90 120)"/>
      <ellipse cx="200" cy="240" rx="10" ry="5" fill="#5A4A3A" opacity="0.15" transform="rotate(-30 200 240)"/>
      <ellipse cx="300" cy="150" rx="7" ry="3" fill="#5A4A3A" opacity="0.25" transform="rotate(60 300 150)"/>
      <ellipse cx="150" cy="320" rx="9" ry="4" fill="#5A4A3A" opacity="0.2" transform="rotate(-45 150 320)"/>
      
      <!-- Small random dots for fine texture -->
      <circle cx="25" cy="25" r="1" fill="#4A3C28" opacity="0.3"/>
      <circle cx="75" cy="45" r="1" fill="#4A3C28" opacity="0.4"/>
      <circle cx="125" cy="35" r="1" fill="#4A3C28" opacity="0.3"/>
      <circle cx="175" cy="55" r="1" fill="#4A3C28" opacity="0.5"/>
      <circle cx="225" cy="25" r="1" fill="#4A3C28" opacity="0.4"/>
      <circle cx="275" cy="45" r="1" fill="#4A3C28" opacity="0.3"/>
      <circle cx="325" cy="35" r="1" fill="#4A3C28" opacity="0.5"/>
      <circle cx="375" cy="55" r="1" fill="#4A3C28" opacity="0.4"/>
      
      <!-- Noise for granular texture -->
      <filter id="noise">
        <feTurbulence baseFrequency="0.9" numOctaves="4" seed="5"/>
        <feColorMatrix values="0 0 0 0 0, 0 0 0 0 0, 0 0 0 0 0, 0 0 0 0.08 0"/>
      </filter>
      <rect width="400" height="400" filter="url(#noise)" opacity="0.4"/>
    </pattern>
    
    <!-- Overlay gradient for depth -->
    <radialGradient id="corkShade" cx="50%" cy="50%">
      <stop offset="0%" style="stop-color:#000000;stop-opacity:0"/>
      <stop offset="100%" style="stop-color:#000000;stop-opacity:0.3"/>
    </radialGradient>
  </defs>
  
  <!-- Apply the pattern -->
  <rect width="400" height="400" fill="url(#corkPattern)"/>
  <rect width="400" height="400" fill="url(#corkShade)"/>
</svg>